HIERARCHY
ROOT Hips
{
	OFFSET 0.00000 0.00000 0.00000
	CHANNELS 6 Xposition Yposition Zposition Zrotation Yrotation Xrotation 
	JOINT LHipJoint
	{
		OFFSET 0 0 0
		CHANNELS 3 Zrotation Yrotation Xrotation
		JOINT LeftUpLeg
		{
			OFFSET 1.57358 -1.76629 0.73362
			CHANNELS 3 Zrotation Yrotation Xrotation
			JOINT LeftLeg
			{
				OFFSET 2.40600 -6.61045 0.00000
				CHANNELS 3 Zrotation Yrotation Xrotation
				JOINT LeftFoot
				{
					OFFSET 2.66168 -7.31291 0.00000
					CHANNELS 3 Zrotation Yrotation Xrotation
					JOINT LeftToeBase
					{
						OFFSET 0.20870 -0.57341 2.12506
						CHANNELS 3 Zrotation Yrotation Xrotation
						End Site
						{
							OFFSET 0.00000 -0.00000 1.10557
						}
					}
				}
			}
		}
	}
	JOINT RHipJoint
	{
		OFFSET 0 0 0
		CHANNELS 3 Zrotation Yrotation Xrotation
		JOINT RightUpLeg
		{
			OFFSET -1.49299 -1.76629 0.73362
			CHANNELS 3 Zrotation Yrotation Xrotation
			JOINT RightLeg
			{
				OFFSET -2.43663 -6.69460 0.00000
				CHANNELS 3 Zrotation Yrotation Xrotation
				JOINT RightFoot
				{
					OFFSET -2.62959 -7.22474 0.00000
					CHANNELS 3 Zrotation Yrotation Xrotation
					JOINT RightToeBase
					{
						OFFSET -0.25784 -0.70841 2.21862
						CHANNELS 3 Zrotation Yrotation Xrotation
						End Site
						{
							OFFSET -0.00000 -0.00000 1.16452
						}
					}
				}
			}
		}
	}
	JOINT LowerBack
	{
		OFFSET 0 0 0
		CHANNELS 3 Zrotation Yrotation Xrotation
		JOINT Spine
		{
			OFFSET -0.00034 2.12399 -0.25450
			CHANNELS 3 Zrotation Yrotation Xrotation
			JOINT Spine1
			{
				OFFSET 0.05594 2.14379 -0.03318
				CHANNELS 3 Zrotation Yrotation Xrotation
				JOINT Neck
				{
					OFFSET 0 0 0
					CHANNELS 3 Zrotation Yrotation Xrotation
					JOINT Neck1
					{
						OFFSET -0.09835 1.62725 0.24211
						CHANNELS 3 Zrotation Yrotation Xrotation
						JOINT Head
						{
							OFFSET 0.10849 1.66041 -0.22648
							CHANNELS 3 Zrotation Yrotation Xrotation
							End Site
							{
								OFFSET 0.04385 1.68267 -0.10541
							}
						}
					}
				}
				JOINT LeftShoulder
				{
					OFFSET 0 0 0
					CHANNELS 3 Zrotation Yrotation Xrotation
					JOINT LeftArm
					{
						OFFSET 3.29108 0.79398 -0.68179
						CHANNELS 3 Zrotation Yrotation Xrotation
						JOINT LeftForeArm
						{
							OFFSET 5.15310 -0.00000 -0.00000
							CHANNELS 3 Zrotation Yrotation Xrotation
							JOINT LeftHand
							{
								OFFSET 3.75138 -0.00000 -0.00000
								CHANNELS 3 Zrotation Yrotation Xrotation
								JOINT LeftFingerBase
								{
									OFFSET 0 0 0
									CHANNELS 3 Zrotation Yrotation Xrotation
									JOINT LeftHandIndex1
									{
										OFFSET 0.52917 -0.00000 0.00000
										CHANNELS 3 Zrotation Yrotation Xrotation
										End Site
										{
											OFFSET 0.42663 -0.00000 0.00000
										}
									}
								}
								JOINT LThumb
								{
									OFFSET 0 0 0
									CHANNELS 3 Zrotation Yrotation Xrotation
									End Site
									{
										OFFSET 0.43315 -0.00000 0.43315
									}
								}
							}
						}
					}
				}
				JOINT RightShoulder
				{
					OFFSET 0 0 0
					CHANNELS 3 Zrotation Yrotation Xrotation
					JOINT RightArm
					{
						OFFSET -3.07414 1.06285 -0.44338
						CHANNELS 3 Zrotation Yrotation Xrotation
						JOINT RightForeArm
						{
							OFFSET -5.29613 -0.00000 0.00000
							CHANNELS 3 Zrotation Yrotation Xrotation
							JOINT RightHand
							{
								OFFSET -3.76144 -0.00000 -0.00000
								CHANNELS 3 Zrotation Yrotation Xrotation
								JOINT RightFingerBase
								{
									OFFSET 0 0 0
									CHANNELS 3 Zrotation Yrotation Xrotation
									JOINT RightHandIndex1
									{
										OFFSET -0.74732 -0.00000 0.00000
										CHANNELS 3 Zrotation Yrotation Xrotation
										End Site
										{
											OFFSET -0.60251 -0.00000 0.00000
										}
									}
								}
								JOINT RThumb
								{
									OFFSET 0 0 0
									CHANNELS 3 Zrotation Yrotation Xrotation
									End Site
									{
										OFFSET -0.61171 -0.00000 0.61171
									}
								}
							}
						}
					}
				}
			}
		}
	}
}
MOTION
Frames: 8
Frame Time: 0.0769231
0.00 0.00 0.00 0 0 0 0 0 0 -21 0 0 0 0 0 0 0 0 0 0 0 0 0 0 21 0 0 0 0 0 0 0 0 0 0 0 0 0 0 0 0 0 0 0 0 0 0 -16 0 0 21 0 0 11 0 0 0 -8 0 0 0 0 0 0 0 0 0 0 0 0 0 0 0 0 0 0 0 0 8 0 0 0 0 0 0 0 0 0 0 0 0 0 0 0 0 0
0.00 0.00 0.00 0.3818 -8.7751 3.6947 0.0000 0.0000 0.0000 -8.7336 -5.3503 -32.6635 12.5892 18.6288 67.8447 -0.0099 4.1348 -5.4831 0.1794 -2.7285 -7.5237 0.0000 0.0000 0.0000 31.3058 1.3124 3.2654 -3.0976 -10.8515 31.7806 -0.1125 0.9489 -6.0697 -0.0993 2.0322 -5.5946 4.1269 2.2034 6.7606 3.1506 3.3904 -0.3015 0.6089 1.6237 -4.0590 -8.5612 -3.5220 -13.9677 5.2773 -3.8694 13.8649 2.7170 -1.8714 6.8005 0.0000 0.0000 0.0000 -87.7325 21.7886 44.6778 99.1909 -59.6784 -67.9509 -0.0000 0.0000 -23.0786 18.5717 9.5382 3.1867 -7.1250 0.0000 -0.0000 -7.3501 39.9269 0.9249 0.0000 0.0000 0.0000 80.6344 -15.1529 41.5720 -103.5067 59.2993 -71.6696 0.0000 -0.0000 -5.8229 -17.2223 23.0115 -6.9092 7.1250 -0.0000 -0.0000 7.3620 -6.1733 6.5835
0.00 0.00 0.00 2.1792 -9.9447 4.6275 0.0000 0.0000 0.0000 -9.7369 -8.5788 -31.9601 6.9921 15.3252 48.8443 -0.0865 5.6975 -4.5399 0.2290 -3.0799 -8.5014 0.0000 0.0000 0.0000 27.2374 -0.5873 9.7961 -1.9819 -8.8283 25.2598 -0.1839 0.3547 8.2355 -0.1224 2.2556 -6.2126 4.0935 2.9101 4.3903 2.0643 4.1642 -0.7250 -0.4461 2.0152 -3.0708 -8.2044 -3.6076 -14.8600 5.1545 -3.9941 14.7750 2.6002 -1.9165 7.2481 0.0000 -0.0000 0.0000 -88.0050 26.0855 42.0560 102.4238 -59.4087 -70.7380 -0.0000 0.0000 -21.5436 19.2418 9.4744 3.2884 -7.1250 0.0000 -0.0000 -6.7594 39.9154 0.8517 0.0000 -0.0000 0.0000 79.0249 -15.7453 44.4863 -106.2362 58.9801 -74.0128 0.0000 -0.0000 -4.8357 -16.9723 22.0610 -6.5394 7.1250 -0.0000 -0.0000 7.4577 -7.1774 6.5244
0.00 0.00 0.00 3.4309 -11.5496 5.5418 0.0000 0.0000 0.0000 -6.7958 -17.6238 -27.4802 2.6940 10.1824 29.5694 -0.0385 5.8137 2.8413 0.8672 -5.9376 -16.6035 0.0000 0.0000 0.0000 25.4233 1.2920 15.0754 -1.6866 -8.1803 23.2630 -1.0641 -4.1029 18.5594 -0.1386 -2.3996 6.6113 3.7518 3.6003 3.2214 1.2810 5.0078 -1.3984 -1.0556 2.4302 -3.0383 -8.3687 -3.8130 -15.3479 5.5990 -4.3119 15.7469 2.7385 -2.0357 7.6877 -0.0000 -0.0000 0.0000 -86.9128 29.8707 40.7120 108.0502 -58.7324 -75.5654 -0.0000 0.0000 -20.2660 19.2456 9.8918 3.4323 -7.1250 0.0000 -0.0000 -6.8218 40.3527 0.7858 -0.0000 -0.0000 0.0000 77.9845 -18.0053 46.1707 -109.5097 58.5118 -76.8115 0.0000 -0.0000 -3.7834 -15.2459 23.8561 -6.2904 7.1250 -0.0000 -0.0000 8.6425 -5.5908 7.8513
0.00 0.00 0.00 3.8100 -14.0119 5.1057 0.0000 0.0000 0.0000 -2.6699 -20.8407 -25.1170 1.2456 7.0765 19.9422 0.1291 -1.3277 7.4101 1.2101 -6.9785 -19.6516 0.0000 0.0000 0.0000 28.2746 7.7321 16.1549 -4.4218 -12.7015 38.2611 -0.8212 -11.5912 16.9568 -0.0768 -1.7874 4.9185 2.9148 4.1430 4.3253 1.1018 5.7112 -0.6902 -0.8704 2.8014 -2.9574 -9.3375 -4.5097 -17.8485 7.4567 -5.1433 15.2708 3.3922 -2.2614 8.1065 -0.0000 -0.0000 0.0000 -82.9785 29.1382 40.4095 114.8088 -57.5416 -81.3077 -0.0000 0.0000 -16.4212 18.1306 9.7130 3.1620 -7.1250 0.0000 -0.0000 -7.7612 40.0721 0.9494 -0.0000 -0.0000 0.0000 78.1996 -17.3833 45.2028 -110.6419 58.3272 -77.7760 0.0000 -0.0000 -4.6236 -14.6410 24.2642 -6.1277 7.1250 -0.0000 -0.0000 9.0390 -5.2613 8.2780
0.00 0.00 0.00 5.7713 -15.3397 2.9951 0.0000 0.0000 0.0000 -5.0448 -18.4392 -23.8921 1.7828 8.3982 23.9302 0.0226 -4.7745 7.5502 0.7428 -5.5056 -15.3566 0.0000 0.0000 0.0000 27.9855 9.4256 13.5221 -8.4182 -16.4184 54.0552 -0.2826 -10.9427 11.4106 -0.3031 -3.5397 9.7852 0.5167 3.8244 6.3958 0.6549 5.1598 -0.3261 -0.1119 2.5559 -3.9292 -9.9676 -4.8313 -16.1184 8.4075 -5.7159 14.2545 3.7539 -2.5171 7.5708 0.0000 0.0000 0.0000 -80.6207 28.1313 39.6683 117.0443 -57.0474 -83.1889 -0.0000 0.0000 -15.1538 18.7213 9.6971 3.2671 -7.1250 0.0000 -0.0000 -7.2462 40.1048 0.8797 0.0000 0.0000 0.0000 80.0851 -17.8162 43.2518 -108.1686 58.7152 -75.6666 0.0000 -0.0000 -4.3017 -15.3771 23.7903 -6.3304 7.1250 -0.0000 -0.0000 8.5575 -5.6393 7.7643
0.00 0.00 0.00 7.5209 -16.4853 0.3700 0.0000 0.0000 0.0000 -7.6429 -16.8223 -22.7315 3.6079 11.6196 34.3991 -0.5657 -16.7191 -4.8613 1.3641 -7.3924 -20.8831 0.0000 0.0000 0.0000 26.7875 9.9331 8.6285 -13.5514 -18.9723 70.8296 -0.0575 -8.3332 6.9287 -0.2040 -2.9082 8.0231 -1.4743 3.2197 8.4966 0.5723 4.1604 1.3111 0.9398 2.0831 -3.5426 -10.7027 -5.1072 -18.1823 8.8542 -5.7783 14.1898 3.9951 -2.4957 7.9497 -0.0000 0.0000 0.0000 -79.6792 23.6437 38.1505 117.8229 -56.8627 -83.8415 -0.0000 0.0000 -16.7216 18.3677 8.9063 2.9427 -7.1250 0.0000 -0.0000 -7.4258 39.2526 1.0585 -0.0000 0.0000 0.0000 82.3653 -16.1379 40.0915 -103.7201 59.2766 -71.8531 0.0000 -0.0000 -3.1622 -16.2123 24.2863 -6.8195 7.1250 -0.0000 -0.0000 8.0740 -5.0218 7.4118
0.00 0.00 0.00 13.9676 -18.1033 -1.6914 0.0000 0.0000 0.0000 -16.4200 -12.7860 -18.5084 4.3660 12.6322 38.0067 0.5610 -16.3191 -16.5118 2.4460 -9.7390 -28.1356 0.0000 0.0000 0.0000 17.9215 10.3284 -4.1423 -19.9626 -20.0000 89.8907 0.0009 -3.0109 2.0568 -0.1640 -2.6092 7.1925 -8.7087 2.6139 10.0554 -1.3280 2.4092 0.7786 3.1456 1.3598 -5.1368 -10.0627 -5.1297 -15.4208 9.5758 -6.2942 12.9187 4.0882 -2.7165 7.1169 0.0000 -0.0000 0.0000 -77.1459 18.7191 37.2573 115.7291 -57.3446 -82.0834 -0.0000 0.0000 -18.3801 19.1841 9.0570 3.1349 -7.1250 0.0000 -0.0000 -6.7456 39.4737 0.9236 0.0000 -0.0000 0.0000 87.5040 -18.9652 35.4541 -98.5785 59.7201 -67.4222 0.0000 -0.0000 -3.5510 -19.0631 23.9125 -7.9735 7.1250 -0.0000 -0.0000 6.2878 -4.9760 5.7542
